<?xml version="1.0" standalone="no"?>
<svg width="567.429" height="405.449" viewBox="0 0 567.429 405.449" xmlns="http://www.w3.org/2000/svg" shape-rendering="crispEdges">
<title>
output/result.svg
</title>
<desc>
Creator: ROOT Version 6.25/01
CreationDate: Tue Sep 27 10:13:31 2022</desc>
<defs>
</defs>
<rect x="0.5" y="0" width="566.929" height="404.949" fill="white"/>
<rect x="57.1929" y="40.4949" width="453.543" height="323.96" fill="white"/>
<rect x="57.1929" y="40.4949" width="453.543" height="323.96" fill="none" stroke="black"/>
<rect x="57.1929" y="40.4949" width="453.543" height="323.96" fill="white"/>
<rect x="57.1929" y="40.4949" width="453.543" height="323.96" fill="none" stroke="black"/>
<path d="M57.1929,364.454h 453.543" fill="none" stroke="black"/>
<path d="M77.8085,40.4949v 323.96" fill="none" stroke="black" stroke-dasharray=" 1, 2"/>
<path d="M141.65,40.4949v 323.96" fill="none" stroke="black" stroke-dasharray=" 1, 2"/>
<path d="M205.492,40.4949v 323.96" fill="none" stroke="black" stroke-dasharray=" 1, 2"/>
<path d="M269.334,40.4949v 323.96" fill="none" stroke="black" stroke-dasharray=" 1, 2"/>
<path d="M333.176,40.4949v 323.96" fill="none" stroke="black" stroke-dasharray=" 1, 2"/>
<path d="M397.018,40.4949v 323.96" fill="none" stroke="black" stroke-dasharray=" 1, 2"/>
<path d="M460.86,40.4949v 323.96" fill="none" stroke="black" stroke-dasharray=" 1, 2"/>
<path d="M77.8085,40.4949v 323.96" fill="none" stroke="black" stroke-dasharray=" 1, 2"/>
<path d="M460.86,40.4949v 323.96" fill="none" stroke="black" stroke-dasharray=" 1, 2"/>
<path d="M57.1929,364.454v -323.96" fill="none" stroke="black"/>
<path d="M510.736,340.429h -453.543" fill="none" stroke="black" stroke-dasharray=" 1, 2"/>
<path d="M510.736,309.428h -453.543" fill="none" stroke="black" stroke-dasharray=" 1, 2"/>
<path d="M510.736,278.427h -453.543" fill="none" stroke="black" stroke-dasharray=" 1, 2"/>
<path d="M510.736,247.426h -453.543" fill="none" stroke="black" stroke-dasharray=" 1, 2"/>
<path d="M510.736,216.425h -453.543" fill="none" stroke="black" stroke-dasharray=" 1, 2"/>
<path d="M510.736,185.424h -453.543" fill="none" stroke="black" stroke-dasharray=" 1, 2"/>
<path d="M510.736,154.423h -453.543" fill="none" stroke="black" stroke-dasharray=" 1, 2"/>
<path d="M510.736,123.422h -453.543" fill="none" stroke="black" stroke-dasharray=" 1, 2"/>
<path d="M510.736,92.4215h -453.543" fill="none" stroke="black" stroke-dasharray=" 1, 2"/>
<path d="M510.736,61.4206h -453.543" fill="none" stroke="black" stroke-dasharray=" 1, 2"/>
<path d="M510.736,340.429h -453.543" fill="none" stroke="black" stroke-dasharray=" 1, 2"/>
<path d="M510.736,61.4206h -453.543" fill="none" stroke="black" stroke-dasharray=" 1, 2"/>
<path d="M57.1929,364.454h 453.543" fill="none" stroke="black"/>
<path d="M77.8085,354.736v 9.71878" fill="none" stroke="black"/>
<path d="M93.769,359.595v 4.85939" fill="none" stroke="black"/>
<path d="M109.729,359.595v 4.85939" fill="none" stroke="black"/>
<path d="M125.69,359.595v 4.85939" fill="none" stroke="black"/>
<path d="M141.65,354.736v 9.71878" fill="none" stroke="black"/>
<path d="M157.611,359.595v 4.85939" fill="none" stroke="black"/>
<path d="M173.571,359.595v 4.85939" fill="none" stroke="black"/>
<path d="M189.532,359.595v 4.85939" fill="none" stroke="black"/>
<path d="M205.492,354.736v 9.71878" fill="none" stroke="black"/>
<path d="M221.453,359.595v 4.85939" fill="none" stroke="black"/>
<path d="M237.413,359.595v 4.85939" fill="none" stroke="black"/>
<path d="M253.374,359.595v 4.85939" fill="none" stroke="black"/>
<path d="M269.334,354.736v 9.71878" fill="none" stroke="black"/>
<path d="M285.295,359.595v 4.85939" fill="none" stroke="black"/>
<path d="M301.255,359.595v 4.85939" fill="none" stroke="black"/>
<path d="M317.216,359.595v 4.85939" fill="none" stroke="black"/>
<path d="M333.176,354.736v 9.71878" fill="none" stroke="black"/>
<path d="M349.136,359.595v 4.85939" fill="none" stroke="black"/>
<path d="M365.097,359.595v 4.85939" fill="none" stroke="black"/>
<path d="M381.057,359.595v 4.85939" fill="none" stroke="black"/>
<path d="M397.018,354.736v 9.71878" fill="none" stroke="black"/>
<path d="M412.978,359.595v 4.85939" fill="none" stroke="black"/>
<path d="M428.939,359.595v 4.85939" fill="none" stroke="black"/>
<path d="M444.899,359.595v 4.85939" fill="none" stroke="black"/>
<path d="M460.86,354.736v 9.71878" fill="none" stroke="black"/>
<path d="M77.8085,354.736v 9.71878" fill="none" stroke="black"/>
<path d="M61.8481,359.595v 4.85939" fill="none" stroke="black"/>
<path d="M460.86,354.736v 9.71878" fill="none" stroke="black"/>
<path d="M476.82,359.595v 4.85939" fill="none" stroke="black"/>
<path d="M492.781,359.595v 4.85939" fill="none" stroke="black"/>
<path d="M508.741,359.595v 4.85939" fill="none" stroke="black"/>
<text xml:space="preserve" x="68.5315" y="377.413" fill="black" font-size="13.503" font-family="Helvetica">14</text>
<text xml:space="preserve" x="133.323" y="377.413" fill="black" font-size="13.503" font-family="Helvetica">16</text>
<text xml:space="preserve" x="196.495" y="377.413" fill="black" font-size="13.503" font-family="Helvetica">18</text>
<text xml:space="preserve" x="259.668" y="377.413" fill="black" font-size="13.503" font-family="Helvetica">20</text>
<text xml:space="preserve" x="324.46" y="377.413" fill="black" font-size="13.503" font-family="Helvetica">22</text>
<text xml:space="preserve" x="387.632" y="377.413" fill="black" font-size="13.503" font-family="Helvetica">24</text>
<text xml:space="preserve" x="452.424" y="377.413" fill="black" font-size="13.503" font-family="Helvetica">26</text>
<text xml:space="preserve" x="442.705" y="391.991" fill="black" font-size="13.503" font-family="Helvetica">Time [days]</text>
<path d="M57.1929,364.454v -323.96" fill="none" stroke="black"/>
<path d="M70.7992,340.429h -13.6063" fill="none" stroke="black"/>
<path d="M63.9961,332.678h -6.80315" fill="none" stroke="black"/>
<path d="M63.9961,324.928h -6.80315" fill="none" stroke="black"/>
<path d="M63.9961,317.178h -6.80315" fill="none" stroke="black"/>
<path d="M70.7992,309.428h -13.6063" fill="none" stroke="black"/>
<path d="M63.9961,301.678h -6.80315" fill="none" stroke="black"/>
<path d="M63.9961,293.927h -6.80315" fill="none" stroke="black"/>
<path d="M63.9961,286.177h -6.80315" fill="none" stroke="black"/>
<path d="M70.7992,278.427h -13.6063" fill="none" stroke="black"/>
<path d="M63.9961,270.677h -6.80315" fill="none" stroke="black"/>
<path d="M63.9961,262.926h -6.80315" fill="none" stroke="black"/>
<path d="M63.9961,255.176h -6.80315" fill="none" stroke="black"/>
<path d="M70.7992,247.426h -13.6063" fill="none" stroke="black"/>
<path d="M63.9961,239.676h -6.80315" fill="none" stroke="black"/>
<path d="M63.9961,231.926h -6.80315" fill="none" stroke="black"/>
<path d="M63.9961,224.175h -6.80315" fill="none" stroke="black"/>
<path d="M70.7992,216.425h -13.6063" fill="none" stroke="black"/>
<path d="M63.9961,208.675h -6.80315" fill="none" stroke="black"/>
<path d="M63.9961,200.925h -6.80315" fill="none" stroke="black"/>
<path d="M63.9961,193.174h -6.80315" fill="none" stroke="black"/>
<path d="M70.7992,185.424h -13.6063" fill="none" stroke="black"/>
<path d="M63.9961,177.674h -6.80315" fill="none" stroke="black"/>
<path d="M63.9961,169.924h -6.80315" fill="none" stroke="black"/>
<path d="M63.9961,162.174h -6.80315" fill="none" stroke="black"/>
<path d="M70.7992,154.423h -13.6063" fill="none" stroke="black"/>
<path d="M63.9961,146.673h -6.80315" fill="none" stroke="black"/>
<path d="M63.9961,138.923h -6.80315" fill="none" stroke="black"/>
<path d="M63.9961,131.173h -6.80315" fill="none" stroke="black"/>
<path d="M70.7992,123.422h -13.6063" fill="none" stroke="black"/>
<path d="M63.9961,115.672h -6.80315" fill="none" stroke="black"/>
<path d="M63.9961,107.922h -6.80315" fill="none" stroke="black"/>
<path d="M63.9961,100.172h -6.80315" fill="none" stroke="black"/>
<path d="M70.7992,92.4215h -13.6063" fill="none" stroke="black"/>
<path d="M63.9961,84.6712h -6.80315" fill="none" stroke="black"/>
<path d="M63.9961,76.921h -6.80315" fill="none" stroke="black"/>
<path d="M63.9961,69.1708h -6.80315" fill="none" stroke="black"/>
<path d="M70.7992,61.4206h -13.6063" fill="none" stroke="black"/>
<path d="M70.7992,340.429h -13.6063" fill="none" stroke="black"/>
<path d="M63.9961,348.179h -6.80315" fill="none" stroke="black"/>
<path d="M63.9961,355.929h -6.80315" fill="none" stroke="black"/>
<path d="M63.9961,363.679h -6.80315" fill="none" stroke="black"/>
<path d="M70.7992,61.4206h -13.6063" fill="none" stroke="black"/>
<path d="M63.9961,53.6703h -6.80315" fill="none" stroke="black"/>
<path d="M63.9961,45.9201h -6.80315" fill="none" stroke="black"/>
<text xml:space="preserve" x="24.797" y="345.017" fill="black" font-size="13.503" font-family="Helvetica">1200</text>
<text xml:space="preserve" x="24.797" y="314.241" fill="black" font-size="13.503" font-family="Helvetica">1400</text>
<text xml:space="preserve" x="24.797" y="281.845" fill="black" font-size="13.503" font-family="Helvetica">1600</text>
<text xml:space="preserve" x="24.797" y="251.069" fill="black" font-size="13.503" font-family="Helvetica">1800</text>
<text xml:space="preserve" x="24.797" y="220.292" fill="black" font-size="13.503" font-family="Helvetica">2000</text>
<text xml:space="preserve" x="24.797" y="189.516" fill="black" font-size="13.503" font-family="Helvetica">2200</text>
<text xml:space="preserve" x="24.797" y="158.74" fill="black" font-size="13.503" font-family="Helvetica">2400</text>
<text xml:space="preserve" x="24.797" y="127.964" fill="black" font-size="13.503" font-family="Helvetica">2600</text>
<text xml:space="preserve" x="24.797" y="97.1879" fill="black" font-size="13.503" font-family="Helvetica">2800</text>
<text xml:space="preserve" x="24.797" y="64.7919" fill="black" font-size="13.503" font-family="Helvetica">3000</text>
<g transform="rotate(-90,11.8386,178.178)">
<text xml:space="preserve" x="11.8386" y="178.178" fill="black" font-size="13.503" font-family="Helvetica">2D Monolayer size (um)</text>
</g>
<path d="M77.8085,334.229l 26.6008, -6.20018l 26.6008, -18.6005l 26.6008, -12.4004l 26.6008, -12.4004l 26.6008, -12.4004l 26.6008, -18.6005l 26.6008, -18.6005l 26.6008, -18.6005l 26.6008, -24.8007l 26.6008, -18.6005l 26.6008, -24.8007l 26.6008,
 -24.8007l 26.6008, -18.6005l 26.6008, -31.0009l 26.6008, -18.6005" fill="none" stroke="#0000ff" fill-opacity="0.20" stroke-opacity="0.20" stroke-width="2"/>
<g fill="#0000ff" fill-opacity="0.70" stroke-opacity="0.70">
<circle cx="77.8085" cy="334.229" r="3.23959"/>
<circle cx="104.409" cy="328.028" r="3.23959"/>
<circle cx="131.01" cy="309.428" r="3.23959"/>
<circle cx="157.611" cy="297.027" r="3.23959"/>
<circle cx="184.212" cy="284.627" r="3.23959"/>
<circle cx="210.812" cy="272.227" r="3.23959"/>
<circle cx="237.413" cy="253.626" r="3.23959"/>
<circle cx="264.014" cy="235.026" r="3.23959"/>
<circle cx="290.615" cy="216.425" r="3.23959"/>
<circle cx="317.216" cy="191.624" r="3.23959"/>
<circle cx="343.816" cy="173.024" r="3.23959"/>
<circle cx="370.417" cy="148.223" r="3.23959"/>
<circle cx="397.018" cy="123.422" r="3.23959"/>
<circle cx="423.619" cy="104.822" r="3.23959"/>
<circle cx="450.219" cy="73.8209" r="3.23959"/>
<circle cx="476.82" cy="55.2204" r="3.23959"/>
</g>
<path d="M77.8085,349.729l 66.502, -40.3012l 29.2609, -29.4509l 97.0928, -69.752l 33.251, -32.551l 186.205, -122.454" fill="none" stroke="black" fill-opacity="0.20" stroke-opacity="0.20" stroke-width="2"/>
<g fill="black" fill-opacity="0.70" stroke-opacity="0.70">
<circle cx="77.8085" cy="349.729" r="3.23959"/>
<circle cx="144.31" cy="309.428" r="3.23959"/>
<circle cx="173.571" cy="279.977" r="3.23959"/>
<circle cx="270.664" cy="210.225" r="3.23959"/>
<circle cx="303.915" cy="177.674" r="3.23959"/>
<circle cx="490.121" cy="55.2204" r="3.23959"/>
</g>
<rect x="57.1929" y="40.4949" width="113.386" height="80.9899" fill="white"/>
<path d="M57.1929,121.485h 113.386" fill="none" stroke="black"/>
<path d="M170.579,121.485v -80.9899" fill="none" stroke="black"/>
<path d="M170.579,40.4949h -113.386" fill="none" stroke="black"/>
<path d="M57.1929,40.4949v 80.9899" fill="none" stroke="black"/>
<text xml:space="preserve" x="84.7295" y="68.0315" fill="black" font-size="18.7041" font-family="Helvetica">Sim data </text>
<path d="M61.4449,74.9156h 19.8425v -28.3465h -19.8425z" fill="white"/>
<path d="M61.4449,60.7424h 19.8425" fill="none" stroke="#0000ff" fill-opacity="0.20" stroke-opacity="0.20" stroke-width="2"/>
<g fill="#0000ff" fill-opacity="0.70" stroke-opacity="0.70">
<circle cx="71.3661" cy="60.7424" r="3.23959"/>
</g>
<text xml:space="preserve" x="84.7295" y="106.907" fill="black" font-size="18.7041" font-family="Helvetica">Exp data </text>
<path d="M61.4449,115.411h 19.8425v -28.3465h -19.8425z" fill="white"/>
<path d="M61.4449,101.237h 19.8425" fill="none" stroke="black" fill-opacity="0.20" stroke-opacity="0.20" stroke-width="2"/>
<g fill="black" fill-opacity="0.70" stroke-opacity="0.70">
<circle cx="71.3661" cy="101.237" r="3.23959"/>
</g></svg>
